<?xml version="1.0" encoding="UTF-8"?>
<svg xmlns="http://www.w3.org/2000/svg" xmlns:xlink="http://www.w3.org/1999/xlink" width="64pt" height="64pt" viewBox="0 0 64 64" version="1.1">
<g id="surface1">
<path style=" stroke:none;fill-rule:nonzero;fill:rgb(0%,0%,0%);fill-opacity:1;" d="M 26.132812 5.5 C 16.265625 7.667969 8.332031 15.464844 5.800781 25.5 C 4.964844 28.867188 5.035156 34.667969 5.964844 38.167969 C 8.5 47.601562 15.765625 54.867188 25.167969 57.398438 C 28.867188 58.367188 34.765625 58.367188 38.464844 57.367188 C 47.5 54.964844 54.464844 48.234375 57.332031 39.167969 C 58.464844 35.632812 58.632812 29.433594 57.699219 25.601562 C 55.300781 15.535156 47.832031 8.035156 37.867188 5.667969 C 34.699219 4.898438 29.265625 4.832031 26.132812 5.5 Z M 36.800781 6.5 C 46.898438 8.601562 54.765625 16.398438 56.800781 26.398438 C 58.464844 34.535156 56.167969 42.800781 50.535156 48.898438 C 45.535156 54.300781 39.265625 57.035156 31.832031 57.035156 C 17.535156 57.066406 6.332031 45.933594 6.332031 31.765625 C 6.332031 25.964844 7.867188 21.101562 11.132812 16.566406 C 16.832031 8.566406 27.167969 4.5 36.800781 6.5 Z M 36.800781 6.5 "/>
<path style=" stroke:none;fill-rule:nonzero;fill:rgb(0%,0%,0%);fill-opacity:1;" d="M 28.667969 25 C 24.765625 25.167969 24.398438 25.265625 23.101562 26.433594 C 22.265625 27.167969 22.101562 28.632812 22.734375 29.265625 C 23.234375 29.765625 24.5 29.800781 25.367188 29.332031 C 26.398438 28.765625 26.101562 28.398438 24.699219 28.566406 C 23.734375 28.699219 23.398438 28.601562 23.234375 28.199219 C 22.867188 27.300781 23.332031 26.699219 24.601562 26.332031 C 25.832031 26 29 25.867188 29 26.167969 C 29 26.234375 28.632812 26.832031 28.199219 27.5 C 27.734375 28.167969 27.066406 29.667969 26.667969 30.832031 C 25.734375 33.601562 24.898438 34.667969 23.632812 34.667969 C 22.601562 34.667969 22.332031 35.132812 23.199219 35.464844 C 24.035156 35.800781 25.933594 34.765625 26.667969 33.601562 C 27.035156 33 27.734375 31.433594 28.234375 30.167969 C 29.332031 27.234375 30.167969 26 31.101562 26 C 31.964844 26 32.800781 25.535156 32.632812 25.132812 C 32.566406 24.964844 30.765625 24.898438 28.667969 25 Z M 28.667969 25 "/>
<path style=" stroke:none;fill-rule:nonzero;fill:rgb(0%,0%,0%);fill-opacity:1;" d="M 38.332031 25.265625 C 37.699219 25.566406 36.601562 26.398438 35.898438 27.101562 C 34.832031 28.167969 34.632812 28.566406 34.734375 29.601562 C 34.832031 30.734375 34.964844 30.898438 36.601562 31.632812 C 38.433594 32.5 38.800781 33 37.601562 33 C 36.433594 33 32.964844 34.800781 31.898438 35.933594 C 30.800781 37.101562 30.832031 37.964844 32 38.601562 C 32.734375 39.035156 33.101562 39.035156 34.734375 38.535156 C 36.832031 37.933594 39.867188 35.5 40.199219 34.132812 C 40.332031 33.699219 40.667969 33.167969 40.964844 33 C 41.464844 32.699219 41.464844 32.699219 40.933594 32.667969 C 40.632812 32.667969 40.234375 32.464844 40.101562 32.199219 C 39.964844 31.933594 39 31.300781 38 30.765625 C 36.066406 29.765625 35.667969 29.066406 36.332031 27.832031 C 36.734375 27.101562 38.300781 26 38.964844 26 C 39.566406 26 39.367188 27.167969 38.632812 28.132812 C 37.566406 29.5 38.167969 29.601562 39.535156 28.300781 C 40.867188 27.035156 41.265625 25.898438 40.667969 25.167969 C 40.132812 24.535156 39.765625 24.535156 38.332031 25.265625 Z M 38.535156 34.933594 C 37.800781 36.332031 36.199219 37.398438 34.5 37.566406 C 30.898438 38 32.964844 34.867188 37 33.800781 C 38.832031 33.332031 39.234375 33.601562 38.535156 34.933594 Z M 38.535156 34.933594 "/>
</g>
</svg>
